<?xml version="1.0" encoding="UTF-8" standalone="no"?>
<!-- Created with Inkscape (http://www.inkscape.org/) -->

<svg
   xmlns:dc="http://purl.org/dc/elements/1.1/"
   xmlns:cc="http://creativecommons.org/ns#"
   xmlns:rdf="http://www.w3.org/1999/02/22-rdf-syntax-ns#"
   xmlns:svg="http://www.w3.org/2000/svg"
   xmlns="http://www.w3.org/2000/svg"
   xmlns:inkscape="http://www.inkscape.org/namespaces/inkscape"
   version="1.1"
   width="226.60382"
   height="226.25287"
   id="svg2">
  <defs
     id="defs4">
    <inkscape:path-effect
       effect="skeletal"
       id="path-effect4040" />
    <inkscape:path-effect
       effect="skeletal"
       id="path-effect4038" />
    <inkscape:path-effect
       effect="skeletal"
       id="path-effect4034" />
    <inkscape:path-effect
       effect="skeletal"
       id="path-effect4030" />
    <inkscape:path-effect
       effect="skeletal"
       id="path-effect4026" />
    <inkscape:path-effect
       effect="skeletal"
       id="path-effect4022" />
    <inkscape:path-effect
       effect="skeletal"
       id="path-effect4018" />
    <inkscape:path-effect
       effect="skeletal"
       id="path-effect4014" />
    <inkscape:path-effect
       effect="skeletal"
       id="path-effect4010" />
    <inkscape:path-effect
       effect="skeletal"
       id="path-effect3051" />
    <inkscape:path-effect
       effect="skeletal"
       id="path-effect3047" />
    <inkscape:path-effect
       effect="skeletal"
       id="path-effect3043" />
    <inkscape:path-effect
       effect="skeletal"
       id="path-effect3039" />
    <inkscape:path-effect
       effect="skeletal"
       id="path-effect3035" />
    <inkscape:path-effect
       effect="skeletal"
       id="path-effect3051-1" />
    <inkscape:path-effect
       effect="skeletal"
       id="path-effect3051-1-8" />
    <inkscape:path-effect
       effect="skeletal"
       id="path-effect3051-8" />
    <inkscape:path-effect
       effect="skeletal"
       id="path-effect3051-5" />
    <inkscape:path-effect
       effect="skeletal"
       id="path-effect3051-5-1" />
    <inkscape:path-effect
       effect="skeletal"
       id="path-effect3051-7" />
    <inkscape:path-effect
       effect="skeletal"
       id="path-effect3051-7-5" />
    <inkscape:path-effect
       effect="skeletal"
       id="path-effect3051-5-1-2" />
    <inkscape:path-effect
       effect="skeletal"
       id="path-effect3051-7-5-1" />
    <inkscape:path-effect
       effect="skeletal"
       id="path-effect3051-5-1-2-4" />
  </defs>
  <metadata
     id="metadata7">
    <rdf:RDF>
      <cc:Work
         rdf:about="">
        <dc:format>image/svg+xml</dc:format>
        <dc:type
           rdf:resource="http://purl.org/dc/dcmitype/StillImage" />
        <dc:title></dc:title>
      </cc:Work>
    </rdf:RDF>
  </metadata>
  <g
     transform="translate(-4.0695338,-225.92107)"
     id="layer1">
    <path
       d="m 85.409165,449.15825 c -0.643703,0.24849 -2.43327,-2.46027 -4.921729,-7.69393 -2.48846,-5.23366 -5.660306,-13.00446 -8.791788,-22.88842 -3.131481,-9.88395 -6.208602,-21.88859 -8.449743,-35.44466 -2.241141,-13.55607 -3.632888,-28.66318 -3.541767,-44.55246 0.0031,-0.53554 0.0078,-1.07024 0.01415,-1.60408 0.197583,-15.69987 1.795665,-30.56496 4.128555,-43.9 2.33289,-13.33504 5.387977,-25.14086 8.430572,-34.88027 3.042594,-9.7394 6.062627,-17.41866 8.426446,-22.6044 2.363818,-5.18574 4.061617,-7.88708 4.705304,-7.65518 0.643687,0.2319 0.175292,3.37236 -1.042388,8.88178 -1.217681,5.50943 -3.17463,13.39628 -5.294105,23.17498 -2.119474,9.77871 -4.392709,21.45373 -6.164654,34.49333 -1.771945,13.0396 -3.031923,27.44286 -3.191351,42.60541 -0.0058,0.51519 -0.01027,1.03122 -0.01348,1.54808 -0.09515,15.33503 0.973483,29.94013 2.655723,43.15738 1.682241,13.21726 3.967434,25.04568 6.165013,34.94031 2.197579,9.89463 4.295456,17.86195 5.632237,23.42885 1.336781,5.56689 1.896708,8.74479 1.253005,8.99328 z"
       id="path4020"
       style="fill:#3a2020;fill-opacity:0.19607843;fill-rule:evenodd;stroke:none" />
    <path
       d="m 87.409165,447.15825 c -0.643703,0.24849 -2.43327,-2.46027 -4.921729,-7.69393 -2.48846,-5.23366 -5.660306,-13.00446 -8.791788,-22.88842 -3.131481,-9.88395 -6.208602,-21.88859 -8.449743,-35.44466 -2.241141,-13.55607 -3.632888,-28.66318 -3.541767,-44.55246 0.0031,-0.53554 0.0078,-1.07024 0.01415,-1.60408 0.197583,-15.69987 1.795665,-30.56496 4.128555,-43.9 2.33289,-13.33504 5.387977,-25.14086 8.430572,-34.88027 3.042594,-9.7394 6.062627,-17.41866 8.426446,-22.6044 2.363818,-5.18574 4.061617,-7.88708 4.705304,-7.65518 0.643687,0.2319 0.175292,3.37236 -1.042388,8.88178 -1.217681,5.50943 -3.17463,13.39628 -5.294105,23.17498 -2.119474,9.77871 -4.392709,21.45373 -6.164654,34.49333 -1.771945,13.0396 -3.031923,27.44286 -3.191351,42.60541 -0.0058,0.51519 -0.01027,1.03122 -0.01348,1.54808 -0.09515,15.33503 0.973483,29.94013 2.655723,43.15738 1.682241,13.21726 3.967434,25.04568 6.165013,34.94031 2.197579,9.89463 4.295456,17.86195 5.632237,23.42885 1.336781,5.56689 1.896708,8.74479 1.253005,8.99328 0,0 0,0 0,0 z"
       id="path3049"
       style="fill:#0e8a8a;fill-opacity:1;fill-rule:evenodd;stroke:none" />
    <path
       d="m 147.98883,449.15825 c -0.6437,-0.24849 -0.0838,-3.42639 1.253,-8.99328 1.33679,-5.5669 3.43466,-13.53422 5.63224,-23.42885 2.19758,-9.89463 4.48277,-21.72305 6.16501,-34.94031 1.68224,-13.21725 2.75088,-27.82235 2.65573,-43.15738 -0.003,-0.51686 -0.008,-1.03289 -0.0135,-1.54808 -0.15943,-15.16255 -1.41941,-29.56581 -3.19135,-42.60541 -1.77195,-13.0396 -4.04518,-24.71462 -6.16466,-34.49333 -2.11947,-9.7787 -4.07642,-17.66555 -5.2941,-23.17498 -1.21768,-5.50942 -1.68608,-8.64988 -1.04239,-8.88178 0.64369,-0.2319 2.34149,2.46944 4.7053,7.65518 2.36382,5.18574 5.38386,12.865 8.42645,22.6044 3.04259,9.73941 6.09768,21.54523 8.43057,34.88027 2.33289,13.33504 3.93097,28.20013 4.12856,43.9 0.006,0.53384 0.0111,1.06854 0.0142,1.60408 0.0911,15.88928 -1.30063,30.99639 -3.54177,44.55246 -2.24114,13.55607 -5.31826,25.56071 -8.44974,35.44466 -3.13149,9.88396 -6.30333,17.65476 -8.79179,22.88842 -2.48846,5.23366 -4.27803,7.94242 -4.92173,7.69393 z"
       id="path4016"
       style="fill:#392121;fill-opacity:0.19607843;fill-rule:evenodd;stroke:none" />
    <path
       d="m 149.98883,447.15825 c -0.6437,-0.24849 -0.0838,-3.42639 1.253,-8.99328 1.33679,-5.5669 3.43466,-13.53422 5.63224,-23.42885 2.19758,-9.89463 4.48277,-21.72305 6.16501,-34.94031 1.68224,-13.21725 2.75088,-27.82235 2.65573,-43.15738 -0.003,-0.51686 -0.008,-1.03289 -0.0135,-1.54808 -0.15943,-15.16255 -1.41941,-29.56581 -3.19135,-42.60541 -1.77195,-13.0396 -4.04518,-24.71462 -6.16466,-34.49333 -2.11947,-9.7787 -4.07642,-17.66555 -5.2941,-23.17498 -1.21768,-5.50942 -1.68608,-8.64988 -1.04239,-8.88178 0.64369,-0.2319 2.34149,2.46944 4.7053,7.65518 2.36382,5.18574 5.38386,12.865 8.42645,22.6044 3.04259,9.73941 6.09768,21.54523 8.43057,34.88027 2.33289,13.33504 3.93097,28.20013 4.12856,43.9 0.006,0.53384 0.0111,1.06854 0.0142,1.60408 0.0911,15.88928 -1.30063,30.99639 -3.54177,44.55246 -2.24114,13.55607 -5.31826,25.56071 -8.44974,35.44466 -3.13149,9.88396 -6.30333,17.65476 -8.79179,22.88842 -2.48846,5.23366 -4.27803,7.94242 -4.92173,7.69393 z"
       id="path3049-5"
       style="fill:#0e8a8a;fill-opacity:1;fill-rule:evenodd;stroke:none" />
  </g>
  <g
     transform="translate(-4.0695338,-225.92107)"
     id="layer2">
    <path
       d="m 172.78735,438.88637 c -0.27946,0.63087 -3.46025,-0.0191 -8.92062,-1.96024 -5.46036,-1.94115 -13.19798,-5.19311 -22.40129,-9.96783 -9.2033,-4.77472 -19.86771,-11.08742 -31.03803,-19.08829 -11.170314,-8.00086 -22.836766,-17.69908 -34.007753,-28.99894 -0.376508,-0.38085 -0.751264,-0.76228 -1.124252,-1.14426 C 64.333636,366.48562 54.952446,354.8444 47.17275,343.7655 39.393053,332.68659 33.20535,322.17834 28.46999,313.14011 c -4.73536,-9.03824 -8.029926,-16.60378 -10.025329,-21.94213 -1.995402,-5.33834 -2.70501,-8.449 -2.085876,-8.74018 0.619134,-0.29118 2.508569,2.26067 5.543289,7.01745 3.034721,4.75678 7.227797,11.7174 12.643688,20.13068 5.415892,8.41328 12.063963,18.2762 20.031398,28.74954 7.967435,10.47334 17.26114,21.54893 27.869951,32.3832 0.360206,0.36838 0.721917,0.73645 1.08512,1.10419 10.776225,10.91078 21.859229,20.48251 32.394759,28.639 10.53554,8.15648 20.51537,14.90456 29.06585,20.3472 8.55049,5.44264 15.66765,9.59296 20.54929,12.58411 4.88164,2.99114 7.52468,4.84233 7.24522,5.4732 z"
       id="path4032"
       style="fill:#3a2f20;fill-opacity:0.19607843;fill-rule:evenodd;stroke:none" />
    <path
       d="m 174.78735,436.88637 c -0.27946,0.63087 -3.46025,-0.0191 -8.92062,-1.96024 -5.46036,-1.94115 -13.19798,-5.19311 -22.40129,-9.96783 -9.2033,-4.77472 -19.86771,-11.08742 -31.03803,-19.08829 -11.17031,-8.00086 -22.836765,-17.69909 -34.007753,-28.99894 -0.376507,-0.38085 -0.751262,-0.76228 -1.12425,-1.14426 C 66.333638,364.48562 56.952447,352.8444 49.172751,341.7655 41.393054,330.68659 35.20535,320.17834 30.46999,311.14011 c -4.73536,-9.03824 -8.029926,-16.60378 -10.025329,-21.94213 -1.995402,-5.33834 -2.70501,-8.449 -2.085876,-8.74018 0.619134,-0.29118 2.508569,2.26067 5.543289,7.01745 3.034721,4.75678 7.227797,11.7174 12.643689,20.13068 5.415892,8.41328 12.063962,18.2762 20.031398,28.74954 7.967435,10.47334 17.26114,21.54893 27.869951,32.3832 0.360207,0.36838 0.721917,0.73645 1.08512,1.10419 10.776225,10.91078 21.859228,20.48251 32.394758,28.639 10.53554,8.15648 20.51537,14.90456 29.06585,20.3472 8.55049,5.44264 15.66765,9.59296 20.54929,12.58411 4.88164,2.99114 7.52468,4.84233 7.24522,5.4732 0,0 0,0 0,0 z"
       id="path3049-1"
       style="fill:#89d7d7;fill-opacity:1;fill-rule:evenodd;stroke:none" />
    <path
       d="m 215.03786,392.63586 c -0.63087,0.27946 -2.48206,-2.36358 -5.4732,-7.24522 -2.99115,-4.88164 -7.14147,-11.9988 -12.58411,-20.54929 -5.44264,-8.55048 -12.19072,-18.53031 -20.3472,-29.06585 -8.15649,-10.53553 -17.72822,-21.61853 -28.63901,-32.39476 -0.36773,-0.3632 -0.7358,-0.72491 -1.10418,-1.08512 -10.83427,-10.60881 -21.90986,-19.90251 -32.3832,-27.86995 -10.47334,-7.96744 -20.336255,-14.61551 -28.749537,-20.0314 -8.413282,-5.41589 -15.373902,-9.60897 -20.130683,-12.64369 -4.756781,-3.03472 -7.308626,-4.92416 -7.017449,-5.54329 0.291177,-0.61913 3.401836,0.0905 8.740182,2.08588 5.338347,1.9954 12.903885,5.28997 21.942124,10.02533 9.038238,4.73536 19.546483,10.92306 30.625393,18.70276 11.0789,7.7797 22.72012,17.16089 33.96131,28.12266 0.38198,0.37298 0.76341,0.74774 1.14426,1.12425 11.29985,11.17098 20.99808,22.83744 28.99894,34.00775 8.00087,11.17032 14.31357,21.83473 19.08829,31.03803 4.77472,9.20331 8.02668,16.94093 9.96783,22.40129 1.94115,5.46037 2.59111,8.64116 1.96024,8.92062 z"
       id="path4028"
       style="fill:#3a2f20;fill-opacity:0.19607843;fill-rule:evenodd;stroke:none" />
    <path
       d="m 219.03786,392.63586 c -0.63087,0.27946 -2.48206,-2.36358 -5.4732,-7.24522 -2.99115,-4.88164 -7.14147,-11.9988 -12.58411,-20.54929 -5.44264,-8.55048 -12.19072,-18.53031 -20.3472,-29.06585 -8.15649,-10.53553 -17.72822,-21.61853 -28.63901,-32.39476 -0.36773,-0.3632 -0.7358,-0.72491 -1.10418,-1.08512 -10.83427,-10.60881 -21.90986,-19.90251 -32.3832,-27.86995 -10.47334,-7.96744 -20.336255,-14.61551 -28.749537,-20.0314 -8.413282,-5.41589 -15.373902,-9.60897 -20.130683,-12.64369 -4.756781,-3.03472 -7.308626,-4.92416 -7.017449,-5.54329 0.291177,-0.61913 3.401836,0.0905 8.740182,2.08588 5.338347,1.9954 12.903885,5.28997 21.942124,10.02533 9.038243,4.73536 19.546483,10.92306 30.625393,18.70276 11.0789,7.7797 22.72012,17.16089 33.96131,28.12266 0.38198,0.37298 0.76341,0.74774 1.14426,1.12425 11.29985,11.17098 20.99808,22.83744 28.99894,34.00775 8.00087,11.17032 14.31357,21.83473 19.08829,31.03803 4.77472,9.20331 8.02668,16.94093 9.96783,22.40129 1.94115,5.46037 2.59111,8.64116 1.96024,8.92062 z"
       id="path3049-5-1"
       style="fill:#89d7d7;fill-opacity:1;fill-rule:evenodd;stroke:none" />
  </g>
  <g
     transform="translate(-4.0695338,-225.92107)"
     id="layer3">
    <path
       d="m 227.30672,369.84466 c 0.24849,0.64371 -2.46026,2.43327 -7.69393,4.92173 -5.23366,2.48846 -13.00446,5.66031 -22.88842,8.79179 -9.88395,3.13148 -21.88859,6.2086 -35.44466,8.44974 -13.55607,2.24114 -28.66318,3.63289 -44.55247,3.54177 -0.53553,-0.003 -1.07024,-0.008 -1.60408,-0.0141 -15.699867,-0.19758 -30.564955,-1.79566 -43.899998,-4.12855 -13.335043,-2.33289 -25.140864,-5.38798 -34.880269,-8.43058 -9.739405,-3.04259 -17.418658,-6.06262 -22.604402,-8.42644 -5.1857441,-2.36382 -7.8870806,-4.06162 -7.6551801,-4.70531 0.2319004,-0.64368 3.3723603,-0.17529 8.8817841,1.04239 5.509423,1.21768 13.396278,3.17463 23.174981,5.2941 9.778703,2.11948 21.453729,4.39271 34.493329,6.16465 13.0396,1.77195 27.442865,3.03192 42.605415,3.19135 0.51519,0.006 1.03122,0.0103 1.54807,0.0135 15.33504,0.0951 29.94014,-0.97348 43.15739,-2.65572 13.21726,-1.68224 25.04567,-3.96743 34.94031,-6.16501 9.89463,-2.19758 17.86195,-4.29545 23.42885,-5.63223 5.56689,-1.33678 8.74479,-1.89671 8.99328,-1.25301 z"
       id="path4036"
       style="fill:#3a2020;fill-opacity:0.19607843;fill-rule:evenodd;stroke:none" />
    <path
       d="m 229.30672,367.84466 c 0.24849,0.64371 -2.46026,2.43327 -7.69393,4.92173 -5.23366,2.48846 -13.00446,5.66031 -22.88842,8.79179 -9.88395,3.13148 -21.88859,6.2086 -35.44466,8.44974 -13.55607,2.24114 -28.66318,3.63289 -44.55247,3.54177 -0.53553,-0.003 -1.07024,-0.008 -1.60408,-0.0141 -15.69987,-0.19758 -30.564955,-1.79566 -43.899998,-4.12855 -13.335043,-2.33289 -25.140864,-5.38798 -34.880269,-8.43058 -9.739405,-3.04259 -17.418658,-6.06262 -22.604402,-8.42644 -5.185744,-2.36382 -7.8870806,-4.06162 -7.6551801,-4.70531 0.2319004,-0.64368 3.3723601,-0.17529 8.8817841,1.04239 5.509423,1.21768 13.396278,3.17463 23.174981,5.2941 9.778703,2.11948 21.453729,4.39271 34.493329,6.16465 13.0396,1.77195 27.442865,3.03192 42.605415,3.19135 0.51519,0.006 1.03122,0.0103 1.54807,0.0135 15.33504,0.0951 29.94014,-0.97348 43.15739,-2.65572 13.21726,-1.68224 25.04567,-3.96743 34.94031,-6.16501 9.89463,-2.19758 17.86195,-4.29545 23.42885,-5.63223 5.56689,-1.33678 8.74479,-1.89671 8.99328,-1.25301 z"
       id="path3049-1-7"
       style="fill:#0e8a8a;fill-opacity:1;fill-rule:evenodd;stroke:none" />
    <path
       d="m 225.30672,307.26498 c -0.24849,0.64371 -3.42639,0.0838 -8.99329,-1.253 -5.56689,-1.33678 -13.53421,-3.43466 -23.42884,-5.63223 -9.89464,-2.19758 -21.72305,-4.48277 -34.94031,-6.16501 -13.21726,-1.68224 -27.82235,-2.75087 -43.15739,-2.65572 -0.51685,0.003 -1.03288,0.008 -1.54807,0.0135 -15.162549,0.15943 -29.56581,1.4194 -42.605411,3.19135 -13.039601,1.77194 -24.714628,4.04518 -34.493331,6.16465 -9.778703,2.11948 -17.665558,4.07643 -23.174982,5.29411 -5.5094236,1.21768 -8.6498834,1.68607 -8.8817839,1.04238 -0.2319004,-0.64368 2.4694361,-2.34148 7.6551799,-4.7053 5.185744,-2.36382 12.864998,-5.38385 22.604403,-8.42645 9.739405,-3.0426 21.545227,-6.09768 34.880271,-8.43057 13.335043,-2.3329 28.200133,-3.93098 43.899994,-4.12856 0.53385,-0.006 1.06855,-0.0111 1.60408,-0.0142 15.88929,-0.0911 30.9964,1.30062 44.55247,3.54176 13.55607,2.24114 25.5607,5.31827 35.44466,8.44975 9.88396,3.13148 17.65476,6.30332 22.88842,8.79178 5.23366,2.48846 7.94242,4.27803 7.69393,4.92173 z"
       id="path4024"
       style="fill:#3a2020;fill-opacity:0.19607843;fill-rule:evenodd;stroke:none" />
    <path
       d="m 229.30672,305.26498 c -0.24849,0.64371 -3.42639,0.0838 -8.99329,-1.253 -5.56689,-1.33678 -13.53421,-3.43466 -23.42884,-5.63223 -9.89464,-2.19758 -21.72305,-4.48277 -34.94031,-6.16501 -13.21726,-1.68224 -27.82235,-2.75087 -43.15739,-2.65572 -0.51685,0.003 -1.03288,0.008 -1.54807,0.0135 -15.16255,0.15943 -29.56581,1.4194 -42.605411,3.19135 -13.039601,1.77194 -24.714628,4.04518 -34.493331,6.16465 -9.778703,2.11948 -17.665558,4.07643 -23.174982,5.29411 -5.509424,1.21768 -8.6498834,1.68607 -8.8817839,1.04238 -0.2319004,-0.64368 2.4694359,-2.34148 7.6551799,-4.7053 5.185744,-2.36382 12.864998,-5.38385 22.604403,-8.42645 9.739405,-3.0426 21.545227,-6.09768 34.880271,-8.43057 13.335043,-2.3329 28.200134,-3.93098 43.899994,-4.12856 0.53385,-0.006 1.06855,-0.0111 1.60408,-0.0142 15.88929,-0.0911 30.9964,1.30062 44.55247,3.54176 13.55607,2.24114 25.5607,5.31827 35.44466,8.44975 9.88396,3.13148 17.65476,6.30332 22.88842,8.79178 5.23366,2.48846 7.94242,4.27803 7.69393,4.92173 z"
       id="path3049-5-1-6"
       style="fill:#0e8a8a;fill-opacity:1;fill-rule:evenodd;stroke:none" />
  </g>
  <path
     d="m 214.96531,54.54537 c 0.63088,0.27946 -0.0191,3.460252 -1.96024,8.920618 -1.94115,5.460366 -5.1931,13.197985 -9.96782,22.40129 -4.77472,9.203304 -11.08743,19.867712 -19.0883,31.038032 -8.00086,11.17032 -17.69909,22.83677 -28.99894,34.00776 -0.38085,0.37651 -0.76228,0.75126 -1.14426,1.12425 -11.2412,10.96178 -22.88242,20.34297 -33.96133,28.12267 -11.0789,7.77969 -21.58715,13.96739 -30.625388,18.70275 -9.038237,4.73536 -16.603774,8.02993 -21.942119,10.02533 -5.338345,1.9954 -8.449003,2.70501 -8.74018,2.08587 -0.291177,-0.61913 2.260667,-2.50856 7.017446,-5.54328 4.756779,-3.03473 11.717398,-7.2278 20.130678,-12.64369 8.41328,-5.41589 18.276193,-12.06397 28.749533,-20.0314 10.47335,-7.96744 21.54893,-17.26114 32.38321,-27.86996 0.36838,-0.36021 0.73645,-0.72192 1.10419,-1.08512 10.91078,-10.77623 20.48251,-21.85923 28.639,-32.39476 8.15649,-10.53554 14.90457,-20.515367 20.34721,-29.065853 5.44264,-8.550485 9.59297,-15.667652 12.58411,-20.549287 2.99114,-4.881635 4.84233,-7.52468 5.4732,-7.24522 z"
     id="path3049-1-7-2"
     style="fill:#cd8319;fill-opacity:1;fill-rule:evenodd;stroke:none" />
  <path
     d="m 212.96531,58.54537 c 0.63088,0.27946 -0.0191,3.460252 -1.96024,8.920618 -1.94115,5.460366 -5.1931,13.197985 -9.96782,22.40129 -4.77472,9.203304 -11.08743,19.867712 -19.0883,31.038032 -8.00086,11.17032 -17.69909,22.83677 -28.99894,34.00776 -0.38085,0.37651 -0.76228,0.75126 -1.14426,1.12425 -11.2412,10.96178 -22.88242,20.34297 -33.96133,28.12267 -11.0789,7.77969 -21.58715,13.96739 -30.625388,18.70275 -9.038237,4.73536 -16.603774,8.02993 -21.942119,10.02533 -5.338345,1.9954 -8.449003,2.70501 -8.74018,2.08587 -0.291177,-0.61913 2.260667,-2.50856 7.017446,-5.54328 4.756779,-3.03473 11.717398,-7.2278 20.130678,-12.64369 8.41328,-5.41589 18.276193,-12.06397 28.749533,-20.0314 10.47335,-7.96744 21.54893,-17.26114 32.38321,-27.86996 0.36838,-0.36021 0.73645,-0.72192 1.10419,-1.08512 10.91078,-10.77623 20.48251,-21.85923 28.639,-32.39476 8.15649,-10.53554 14.90457,-20.515367 20.34721,-29.065853 5.44264,-8.550485 9.59297,-15.667652 12.58411,-20.549287 2.99114,-4.881635 4.84233,-7.52468 5.4732,-7.24522 z"
     id="path4008"
     style="fill:#392f21;fill-opacity:0.19607843;fill-rule:evenodd;stroke:none" />
  <path
     d="m 214.96531,54.54537 c 0.63088,0.27946 -0.0191,3.460252 -1.96024,8.920618 -1.94115,5.460366 -5.1931,13.197985 -9.96782,22.40129 -4.77472,9.203304 -11.08743,19.867712 -19.0883,31.038032 -8.00086,11.17032 -17.69909,22.83677 -28.99894,34.00776 -0.38085,0.37651 -0.76228,0.75126 -1.14426,1.12425 -11.2412,10.96178 -22.88242,20.34297 -33.96133,28.12267 -11.0789,7.77969 -21.58715,13.96739 -30.625388,18.70275 -9.038237,4.73536 -16.603774,8.02993 -21.942119,10.02533 -5.338345,1.9954 -8.449003,2.70501 -8.74018,2.08587 -0.291177,-0.61913 2.260667,-2.50856 7.017446,-5.54328 4.756779,-3.03473 11.717398,-7.2278 20.130678,-12.64369 8.41328,-5.41589 18.276193,-12.06397 28.749533,-20.0314 10.47335,-7.96744 21.54893,-17.26114 32.38321,-27.86996 0.36838,-0.36021 0.73645,-0.72192 1.10419,-1.08512 10.91078,-10.77623 20.48251,-21.85923 28.639,-32.39476 8.15649,-10.53554 14.90457,-20.515367 20.34721,-29.065853 5.44264,-8.550485 9.59297,-15.667652 12.58411,-20.549287 2.99114,-4.881635 4.84233,-7.52468 5.4732,-7.24522 z"
     id="path4004"
     style="fill:#89d7d7;fill-opacity:1;fill-rule:evenodd;stroke:none" />
  <path
     d="m 168.71479,14.294853 c 0.27946,0.630874 -2.36358,2.482062 -7.24522,5.473204 -4.88163,2.991143 -11.9988,7.141465 -20.54929,12.584107 -8.55048,5.442641 -18.53031,12.19072 -29.06584,20.347208 -10.53554,8.156489 -21.618539,17.728217 -32.394763,28.639004 -0.363203,0.367738 -0.724913,0.735807 -1.08512,1.104183 -10.608811,10.834277 -19.902516,21.909861 -27.869951,32.383201 -7.967436,10.47335 -14.615507,20.33626 -20.0314,28.74954 -5.415893,8.41328 -9.608969,15.3739 -12.64369,20.13068 -3.034721,4.75678 -4.924157,7.30863 -5.54329,7.01745 -0.619134,-0.29117 0.09047,-3.40183 2.085876,-8.74018 1.995402,-5.33835 5.289968,-12.90389 10.025328,-21.94213 4.735359,-9.03824 10.923062,-19.54649 18.702759,-30.62539 7.779697,-11.078901 17.160887,-22.720122 28.122656,-33.961316 0.372988,-0.381979 0.747743,-0.763411 1.12425,-1.144261 11.170988,-11.299854 22.837441,-20.99808 34.007755,-28.998944 11.17032,-8.000864 21.83473,-14.31357 31.03803,-19.088291 9.20331,-4.77472 16.94093,-8.026672 22.40129,-9.967824 5.46037,-1.941152 8.64116,-2.591115 8.92062,-1.960241 z"
     id="path4012"
     style="fill:#392f21;fill-opacity:0.19607843;fill-rule:evenodd;stroke:none" />
  <path
     d="m 170.71479,10.294853 c 0.27946,0.630874 -2.36358,2.482062 -7.24522,5.473204 -4.88163,2.991142 -11.9988,7.141465 -20.54929,12.584106 -8.55048,5.442641 -18.53031,12.19072 -29.06584,20.347208 -10.53554,8.156488 -21.61854,17.728217 -32.394765,28.639003 -0.363202,0.367738 -0.724913,0.735808 -1.085119,1.104184 -10.608811,10.834278 -19.902516,21.909862 -27.869952,32.383202 -7.967435,10.47335 -14.615506,20.33626 -20.031398,28.74954 -5.415893,8.41328 -9.608969,15.3739 -12.64369,20.13068 -3.034721,4.75678 -4.924157,7.30863 -5.54329,7.01745 -0.619134,-0.29117 0.09047,-3.40183 2.085876,-8.74018 1.995402,-5.33835 5.289968,-12.90389 10.025327,-21.94213 4.73536,-9.03824 10.923062,-19.54649 18.702759,-30.62539 7.779696,-11.078902 17.160886,-22.720122 28.122655,-33.961317 0.372988,-0.381979 0.747743,-0.763411 1.124251,-1.144262 11.170988,-11.299853 22.83744,-20.998079 34.007756,-28.998944 11.17032,-8.000864 21.83473,-14.313569 31.03803,-19.08829 9.20331,-4.77472 16.94093,-8.026672 22.40129,-9.967823 5.46037,-1.941152 8.64116,-2.5911154 8.92062,-1.960241 z"
     id="path3049-5-1-6-3"
     style="fill:#89d7d7;fill-opacity:1;fill-rule:evenodd;stroke:none" />
</svg>
